<svg xmlns="http://www.w3.org/2000/svg" width="262" height="131.34" viewBox="0 0 262 131.34">
  <g id="undraw_contact_us_re_4qqt" transform="translate(-0.005)">
    <path id="Path_173" data-name="Path 173" d="M239.161,372.974q-11.859,0-23.682-.425c-11.262-.4-22.908-.823-33.733-6.826-7.572-4.2-14.279-10.937-19.394-19.485A65.561,65.561,0,0,1,154.92,327.6a76.608,76.608,0,0,1,.279-36.265,64.408,64.408,0,0,1,4.319-11.837c7.894-16.347,22.292-27.32,39.5-30.105a2,2,0,0,1,.429-.009c.077,0,.155.009.233.005l.1-.032a4.946,4.946,0,0,1,.8-.2c26.543-3.951,54.6,4.044,81.143,23.121,20.521,14.752,47.718,22.7,83.144,24.285l.5.026c9.862.567,19.4,4.632,27.588,11.758A59.762,59.762,0,0,1,410.5,335.483c.418,1.307.8,2.667,1.138,4.043a7.629,7.629,0,0,1-2.034,7.234v0l-.088.091c-.212.211-.436.414-.664.6l-.269.221a38.1,38.1,0,0,1-6.192,4.482,19.04,19.04,0,0,1-4.517,1.706c-8.633,2.1-17.4,4.056-26.057,5.8-16.813,3.39-34.069,6.186-51.288,8.311a664.82,664.82,0,0,1-81.37,5ZM199.247,249.965a1.027,1.027,0,0,0-.158.011c-17.049,2.76-31.311,13.625-39.126,29.81a63.76,63.76,0,0,0-4.276,11.719,75.938,75.938,0,0,0-.276,35.944,64.932,64.932,0,0,0,7.361,18.457c5.065,8.464,11.7,15.134,19.2,19.289,10.727,5.95,22.318,6.366,33.528,6.768a664,664,0,0,0,104.981-4.569c17.208-2.124,34.453-4.918,51.255-8.306,8.651-1.743,17.412-3.693,26.039-5.8a18.562,18.562,0,0,0,4.409-1.664,37.731,37.731,0,0,0,6.11-4.427l.269-.221c.2-.162.389-.336.574-.516l.053-.055a7.021,7.021,0,0,0,1.966-6.722h0c-.334-1.361-.713-2.707-1.126-4-6.941-21.9-24.9-37.376-44.679-38.512l-.5-.026A204.713,204.713,0,0,1,321.556,291c-15.455-4.073-28.947-10.2-40.1-18.224-26.44-19-54.382-26.969-80.809-23.036a4.533,4.533,0,0,0-.726.188l-.183.051a2.745,2.745,0,0,1-.311,0c-.061,0-.12-.006-.178-.006Z" transform="translate(-152.875 -241.634)" fill="#f0f0f0"/>
    <path id="Path_174" data-name="Path 174" d="M387.825,325.3c-.732-.7-1.48-4.618-2.415-5.015.7,1.544.191,1.952.188,3.646a11.462,11.462,0,0,1-.334,2.855H369.435V314.429a8.452,8.452,0,0,1,8.452-8.452,5.044,5.044,0,0,1,1.253.183,8.036,8.036,0,0,1,5.669,5.685C386.016,316.256,387.935,323.6,387.825,325.3Z" transform="translate(-305.983 -282.504)" fill="#2f2e41"/>
    <path id="Path_175" data-name="Path 175" d="M357.016,400.547l.008-9.628-5.66.506,2,6.073-.935,15.263a2.395,2.395,0,1,0,2.9,2.018Z" transform="translate(-292.635 -342.559)" fill="#ffb6b6"/>
    <path id="Path_176" data-name="Path 176" d="M257.745,411.477h2.286l1.088-8.819h-3.375Z" transform="translate(-182.226 -284.685)" fill="#ffb6b6"/>
    <path id="Path_177" data-name="Path 177" d="M406.878,654.248l3.615-.216v1.549l3.436,2.373a.967.967,0,0,1-.55,1.763h-4.3l-.742-1.532-.29,1.532h-1.622Z" transform="translate(-332.134 -528.584)" fill="#2f2e41"/>
    <path id="Path_178" data-name="Path 178" d="M212.619,411.477h2.287l1.088-8.819h-3.375Z" transform="translate(-150.322 -284.685)" fill="#ffb6b6"/>
    <path id="Path_179" data-name="Path 179" d="M361.753,654.248l3.615-.216v1.549l3.436,2.373a.967.967,0,0,1-.55,1.763h-4.3l-.742-1.532-.29,1.532H361.3Z" transform="translate(-300.229 -528.584)" fill="#2f2e41"/>
    <path id="Path_180" data-name="Path 180" d="M366.69,355.43l-4.737.093-3.344,3.529-2.681.393a5.352,5.352,0,0,0-4.564,4.951h0l.464,2.551h2.786l1.612,9.464c-.627,1.6-.669,2.858.617,3.353l3.994,7.523,11.8-5.294a2.831,2.831,0,0,0,.178-3.066l.843-14.488h2.835c0-2.71-.917-4.994-3.609-5.3a31.824,31.824,0,0,0-3.22-.184Z" transform="translate(-293.208 -317.468)" fill="#e6e6e6"/>
    <path id="Path_181" data-name="Path 181" d="M368.643,440.715s-11.517,2.043-15.789-2.229c0,0-.434.736-1.087,1.958-.188.351-.551.589-.77,1.014-.2.387-.712.862-.929,1.3-.175.353.105.814-.076,1.195-2.188,4.589-4.744,11.063-4.2,15.337.353,2.757,1.083,9.171,1.852,16.06.06.538-.426,1.23-.366,1.772.057.512.661.874.718,1.387.038.34-.384.688-.346,1.028.041.373.542.739.583,1.111,1.053,9.513,2.017,18.394,2.017,18.394h5.387l1.016-20.284-.831-7.394,1.95-14.953,2.693,14.21.346,8,2.846,20.795h4.98v-20.13l.371-1.046-.371-1.341.371-1.445-.371-1.574Z" transform="translate(-289.216 -376.189)" fill="#2f2e41"/>
    <path id="Path_182" data-name="Path 182" d="M385.325,325.305a5.369,5.369,0,1,1,.93-4.487c.015.064.028.128.041.195A5.362,5.362,0,0,1,385.325,325.305Z" transform="translate(-310.388 -290.09)" fill="#ffb6b6"/>
    <path id="Path_183" data-name="Path 183" d="M383.834,321.38a2.822,2.822,0,0,0-.825-1.5,3.85,3.85,0,0,1-.223,1.614,7.441,7.441,0,0,1-4.089-.81,3.633,3.633,0,0,0-3.557,0,5.2,5.2,0,0,1,5.2-5.2h.928a5.2,5.2,0,0,1,5.2,5.2A15.482,15.482,0,0,1,383.834,321.38Z" transform="translate(-310.017 -289.228)" fill="#2f2e41"/>
    <circle id="Ellipse_16" data-name="Ellipse 16" cx="14.942" cy="14.942" r="14.942" transform="translate(18.241 68.558)" fill="#f0f0f0"/>
    <circle id="Ellipse_17" data-name="Ellipse 17" cx="14.942" cy="14.942" r="14.942" transform="translate(113.461)" fill="#f0f0f0"/>
    <circle id="Ellipse_18" data-name="Ellipse 18" cx="14.942" cy="14.942" r="14.942" transform="translate(232.12 70.902)" fill="#f0f0f0"/>
    <path id="Path_184" data-name="Path 184" d="M638.448,275.97v33.883a2.672,2.672,0,0,1-2.644,2.672h-3.972a11.9,11.9,0,0,1-11.9-11.9V275.97a2.673,2.673,0,0,1,2.673-2.673h1.6c-.74,2.159,9.307,3.069,9.858,0h1.711A2.673,2.673,0,0,1,638.448,275.97Z" transform="translate(-483.09 -259.399)" fill="#ffce07"/>
    <path id="Path_185" data-name="Path 185" d="M643.182,263.8a.351.351,0,0,1,.35-.35h2.382a.35.35,0,0,1,0,.7h-2.382a.351.351,0,0,1-.35-.35Z" transform="translate(-499.526 -252.439)" fill="#3f3d56"/>
    <path id="Path_186" data-name="Path 186" d="M628.991,306.452H613.927a4.413,4.413,0,0,1-4.408-4.408V278.359a.641.641,0,0,1-.267-.521v-2.382a.64.64,0,0,1,.267-.521V274.3a.641.641,0,0,1-.267-.521v-2.382a.641.641,0,0,1,.267-.521v-1.155a.64.64,0,0,1-.337-.565v-2.382a.64.64,0,0,1,.337-.566v-3.166a4.413,4.413,0,0,1,4.408-4.408h15.064a4.413,4.413,0,0,1,4.408,4.408v6.9a.553.553,0,0,1,.26.468v4.542a.553.553,0,0,1-.26.468v26.627A4.413,4.413,0,0,1,628.991,306.452Zm-15.064-47.238a3.827,3.827,0,0,0-3.822,3.822V266.7l-.282.011a.057.057,0,0,0-.055.056v2.382a.058.058,0,0,0,.055.056l.282.011v2.065l-.223.055a.058.058,0,0,0-.044.055v2.382a.058.058,0,0,0,.044.055l.223.055v1.462l-.223.055a.058.058,0,0,0-.044.055v2.382a.058.058,0,0,0,.044.055l.223.055v24.1a3.827,3.827,0,0,0,3.822,3.822h15.064a3.827,3.827,0,0,0,3.822-3.822V274.915h.26v-4.475h-.26v-7.4a3.827,3.827,0,0,0-3.822-3.822Z" transform="translate(-475.487 -249.027)" fill="#3f3d56"/>
    <circle id="Ellipse_19" data-name="Ellipse 19" cx="0.35" cy="0.35" r="0.35" transform="translate(147.369 11.015)" fill="#3f3d56"/>
    <path id="Path_187" data-name="Path 187" d="M297.3,440.034H258.1a2.106,2.106,0,0,1-2.1-2.1v-19.1a2.106,2.106,0,0,1,2.1-2.1h39.2a2.106,2.106,0,0,1,2.1,2.1v19.1A2.106,2.106,0,0,1,297.3,440.034Z" transform="translate(-225.782 -360.81)" fill="#fff"/>
    <path id="Path_188" data-name="Path 188" d="M297.3,440.034H258.1a2.106,2.106,0,0,1-2.1-2.1v-19.1a2.106,2.106,0,0,1,2.1-2.1h39.2a2.106,2.106,0,0,1,2.1,2.1v19.1A2.106,2.106,0,0,1,297.3,440.034ZM258.1,417.32a1.519,1.519,0,0,0-1.515,1.515v19.1a1.519,1.519,0,0,0,1.515,1.515h39.2a1.519,1.519,0,0,0,1.515-1.515v-19.1a1.519,1.519,0,0,0-1.515-1.515Z" transform="translate(-225.782 -360.81)" fill="#3f3d56"/>
    <path id="Path_189" data-name="Path 189" d="M288.283,443.245c-7.731,0-15.792-.074-18.8-.122a1.517,1.517,0,0,1-1.485-1.51V425.8a.536.536,0,0,1,.534-.535h35.3a.536.536,0,0,1,.535.534v10.727a6.692,6.692,0,0,1-6.58,6.666C294.983,443.231,291.664,443.245,288.283,443.245Z" transform="translate(-234.266 -366.844)" fill="#ffce07"/>
    <path id="Path_190" data-name="Path 190" d="M294.344,429.514H262.45a1.3,1.3,0,0,1-1.22-.86l-3.61-10.127a1.3,1.3,0,0,1,1.218-1.731l39.867-.056a1.3,1.3,0,0,1,1.277,1.523l.031.013-.114.267v0l-4.364,10.183a1.292,1.292,0,0,1-1.19.785Zm4.363-12.188-39.868.056a.71.71,0,0,0-.667.948l3.61,10.127a.713.713,0,0,0,.669.471h31.894a.707.707,0,0,0,.651-.43l4.364-10.183.215.092-.215-.092a.709.709,0,0,0-.652-.989Z" transform="translate(-226.875 -360.815)" fill="#3f3d56"/>
    <circle id="Ellipse_20" data-name="Ellipse 20" cx="2.497" cy="2.497" r="2.497" transform="translate(49.359 65.909)" fill="#fff"/>
    <circle id="Ellipse_21" data-name="Ellipse 21" cx="2.497" cy="2.497" r="2.497" transform="translate(143.7 44.228)" fill="#fff"/>
    <path id="Path_191" data-name="Path 191" d="M940.445,490.639l-6.671-6.586a3.482,3.482,0,0,0-2.47-1.014h-.023a3.491,3.491,0,0,0-2.479,1.043,8.2,8.2,0,0,0-.144,11.38c.07.076.144.149.217.223a7.984,7.984,0,0,0,1.336,1.069,8.109,8.109,0,0,0,4.427,1.3h.05a8.153,8.153,0,0,0,5.786-2.438,3.523,3.523,0,0,0-.029-4.975Zm-.387,4.562a7.645,7.645,0,0,1-9.6,1.02,7.852,7.852,0,0,1-1.175-.952,7.618,7.618,0,0,1-.067-10.773,2.9,2.9,0,0,1,2.068-.87h.018a2.9,2.9,0,0,1,2.057.844l6.671,6.589a2.932,2.932,0,0,1,.026,4.143Z" transform="translate(-699.789 -407.689)" fill="#3f3d56"/>
    <path id="Path_192" data-name="Path 192" d="M865.741,416.852l-6.671-6.589a3.494,3.494,0,0,0-2.47-1.014h-.021a3.5,3.5,0,0,0-2.482,1.046,8.226,8.226,0,0,0-1.383,9.668l0,0a8.075,8.075,0,0,0,1.269,1.737c.056.064.12.129.185.193a8.155,8.155,0,0,0,5.763,2.367h.053a8.161,8.161,0,0,0,5.786-2.441A3.515,3.515,0,0,0,865.741,416.852Zm-.387,4.562a7.575,7.575,0,0,1-5.37,2.265h-.05a7.618,7.618,0,0,1-5.417-12.97,2.932,2.932,0,0,1,4.143-.026l6.671,6.586a2.935,2.935,0,0,1,.023,4.146Z" transform="translate(-646.975 -355.518)" fill="#3f3d56"/>
    <path id="Path_193" data-name="Path 193" d="M944.758,496.742l-7.355-7.264a2.557,2.557,0,0,0-3.612.022,6.446,6.446,0,0,0,9.172,9.059Z" transform="translate(-703.677 -411.721)" fill="#ffce07"/>
    <path id="Path_194" data-name="Path 194" d="M870.053,422.958l-7.355-7.264a2.557,2.557,0,0,0-3.612.022,6.446,6.446,0,0,0,9.172,9.059Z" transform="translate(-650.859 -359.555)" fill="#ffce07"/>
    <path id="Path_195" data-name="Path 195" d="M880.88,466.217l-.176.463q-1.239-.47-2.4-.943c-13.735-5.6-20.292-12.165-24.678-24.617l0,0q-.312-.879-.606-1.8l.463-.149a7.483,7.483,0,0,0,.674,1.693q.36,1.024.741,2c4.122,10.509,10.2,16.516,21.857,21.587q.879.382,1.8.759a7.643,7.643,0,0,0,2.329,1.014Z" transform="translate(-647.881 -376.672)" fill="#3f3d56"/>
    <rect id="Rectangle_184" data-name="Rectangle 184" width="0.586" height="21.388" transform="translate(211.561 68.629) rotate(-45.355)" fill="#3f3d56"/>
    <path id="Path_196" data-name="Path 196" d="M405.811,392.939l.008-9.628-5.66.506,2,6.073-7.251,10.991a2.394,2.394,0,1,0,2.9,2.018Z" transform="translate(-322.669 -337.18)" fill="#ffb6b6"/>
  </g>
</svg>
